<svg version="1.2" xmlns="http://www.w3.org/2000/svg" viewBox="0 0 1696 608" width="1696" height="608">
	<style>
		.s0 { fill: currentColor } 
	</style>
	<path id="Color Fill 1" class="s0" d="m535 217l85-112h-405c0 0-142.41 3.17-147 123-4.59 119.83 104.21 128.78 132 133 27.79 4.22 270 1 270 1 0 0 32.48 1.56 33 28 0.52 26.44-30 34-30 34h-335l-85 110 415 1c0 0 161.66 1.66 163-134 1.34-135.66-144-125-144-125h-260c0 0-36.59-4.44-31-29 5.59-24.56 14.63-25.45 28-29 13.37-3.55 311-1 311-1z"/>
	<path id="Layer 3" class="s0" d="m998 217c0 0 39.82 3.04 33 38-6.82 34.96-2 12-2 12 0 0-58.73 228.4 229 268 59.19 8.15 240.25-1.42 258-1 8.17 0.19 82-108 82-108l-327-2c0 0-97.87 0.94-113-87-0.61-3.54 17.96-49.76 18-52 1.1-60.99-19.63-105.66-56-139-36.37-33.34-121.64-41.04-131-42-9.36-0.96-320 1-320 1l-87 111z"/>
	<path id="Layer 1" class="s0" d="m535 217l85-112h-405c0 0-142.41 3.17-147 123-4.59 119.83 104.21 128.78 132 133 27.79 4.22 270 1 270 1 0 0 32.48 1.56 33 28 0.52 26.44-30 34-30 34h-335l-85 110 415 1c0 0 161.66 1.66 163-134 1.34-135.66-144-125-144-125h-260c0 0-36.59-4.44-31-29 5.59-24.56 14.63-25.45 28-29 13.37-3.55 311-1 311-1zm84 285v33h131v-110l272-2c0 0-18.24-43.77-21-56-2.76-12.23-5.66-27.97-6-47-0.12-6.56-10.79-4.38-11-4-0.32 0.58-65-1-65-1l-281 1c0 0 55.21 100.77-19 186z"/>
	<path id="Layer 2" class="s0" d="m535 217l85-112h-405c0 0-142.41 3.17-147 123-4.59 119.83 104.21 128.78 132 133 27.79 4.22 270 1 270 1 0 0 32.48 1.56 33 28 0.52 26.44-30 34-30 34h-335l-85 110 415 1c0 0 161.66 1.66 163-134 1.34-135.66-144-125-144-125h-260c0 0-36.59-4.44-31-29 5.59-24.56 14.63-25.45 28-29 13.37-3.55 311-1 311-1zm84 285v33h131v-110l272-2c0 0-18.24-43.77-21-56-2.76-12.23-5.66-27.97-6-47-0.12-6.56-10.79-4.38-11-4-0.32 0.58-65-1-65-1l-281 1c0 0 55.21 100.77-19 186zm619-281l277-4 83-112-358 1c0 0-64.61 5.61-95 26-8.18 5.49-1.51 6.99 4.87 10.26 13.68 7.03 49.33 59.46 49.13 93.74q-0.01 1.62 0.1 2.99c0.13 1.75 38.9-17.99 38.9-17.99z"/>
</svg>
